<?xml version="1.0" encoding="UTF-8"?>
<!DOCTYPE svg PUBLIC "-//W3C//DTD SVG 1.1//EN" "http://www.w3.org/Graphics/SVG/1.1/DTD/svg11.dtd">
<svg xmlns="http://www.w3.org/2000/svg" version="1.1" width="1096px" height="790px" style="shape-rendering:geometricPrecision; text-rendering:geometricPrecision; image-rendering:optimizeQuality; fill-rule:evenodd; clip-rule:evenodd" xmlns:xlink="http://www.w3.org/1999/xlink">
<g><path style="opacity:1" fill="#3e3c56" d="M 649.5,132.5 C 647.708,133.309 645.708,133.809 643.5,134C 696.32,141.911 741.653,164.411 779.5,201.5C 738.559,231.072 724.393,270.405 737,319.5C 753.839,364.107 786.172,387.774 834,390.5C 851.832,389.943 868.666,385.61 884.5,377.5C 884.5,377.833 884.5,378.167 884.5,378.5C 884.43,390.35 884.43,402.35 884.5,414.5C 883.671,406.677 883.171,398.677 883,390.5C 882.94,398.936 882.273,407.269 881,415.5C 872.596,407.545 862.762,402.045 851.5,399C 837.531,397.912 823.531,397.412 809.5,397.5C 797.408,397.353 785.408,397.853 773.5,399C 772.107,400.171 771.273,401.671 771,403.5C 770.5,426.498 770.333,449.498 770.5,472.5C 759.235,485.268 747.401,497.601 735,509.5C 734.004,513.207 734.67,516.541 737,519.5C 741.133,522.631 744.966,526.131 748.5,530C 751.634,530.79 754.634,530.457 757.5,529C 761.336,523.997 765.67,519.497 770.5,515.5C 768.107,532.371 771.274,548.038 780,562.5C 784.386,567.389 789.22,571.722 794.5,575.5C 784.587,585.247 773.92,594.08 762.5,602C 763.448,602.483 764.448,602.649 765.5,602.5C 765.5,602.833 765.5,603.167 765.5,603.5C 760.35,604.651 755.016,604.817 749.5,604C 598.676,584.76 451.676,549.927 308.5,499.5C 309.542,490.75 306.208,484.25 298.5,480C 294.259,478.543 289.926,478.209 285.5,479C 281.742,480.923 278.409,483.423 275.5,486.5C 251.15,477.155 227.484,466.488 204.5,454.5C 204.38,436.225 205.713,418.059 208.5,400C 208.333,398.833 208.167,397.667 208,396.5C 207.844,399.191 207.011,401.524 205.5,403.5C 208.234,379.899 214.4,357.232 224,335.5C 228.512,323.475 233.845,311.809 240,300.5C 246.857,290.101 253.69,279.768 260.5,269.5C 261.222,269.918 261.722,270.584 262,271.5C 294.073,226.762 335.573,193.928 386.5,173C 384.885,172.938 383.552,172.771 382.5,172.5C 384.426,171.514 386.426,170.514 388.5,169.5C 387.913,170.767 387.913,171.767 388.5,172.5C 431.586,156.012 475.919,151.345 521.5,158.5C 536.859,149.492 553.192,142.658 570.5,138C 569.748,137.329 569.414,136.496 569.5,135.5C 596.009,130.123 622.676,129.123 649.5,132.5 Z M 429.5,300.5 C 441.818,342.714 430.484,376.88 395.5,403C 386.536,408.752 376.869,411.252 366.5,410.5C 364.676,408.511 362.676,406.677 360.5,405C 357.621,404.126 354.955,404.46 352.5,406C 353.759,406.923 355.092,407.757 356.5,408.5C 356.192,409.308 355.692,409.975 355,410.5C 350.947,407.61 346.447,405.944 341.5,405.5C 339.801,405.66 338.134,405.494 336.5,405C 335.167,394.169 329.5,390.836 319.5,395C 318.117,396.271 317.117,397.771 316.5,399.5C 314.833,398.833 313.167,398.167 311.5,397.5C 307.472,395.155 303.472,392.822 299.5,390.5C 292.167,385.167 285.833,378.833 280.5,371.5C 276.37,365.721 272.703,359.721 269.5,353.5C 269.737,352.209 269.404,351.209 268.5,350.5C 267.708,346.789 266.708,343.122 265.5,339.5C 264.726,338.289 263.893,338.289 263,339.5C 262.667,340.833 262.333,342.167 262,343.5C 258.797,332.849 258.797,322.182 262,311.5C 263.895,304.719 266.061,298.052 268.5,291.5C 294.751,246.909 332.751,232.742 382.5,249C 395.827,256.662 407.66,266.162 418,277.5C 422.689,284.732 426.523,292.399 429.5,300.5 Z"/></g>
<g><path style="opacity:0.199" fill="#2b2843" d="M 569.5,135.5 C 569.414,136.496 569.748,137.329 570.5,138C 553.192,142.658 536.859,149.492 521.5,158.5C 475.919,151.345 431.586,156.012 388.5,172.5C 387.913,171.767 387.913,170.767 388.5,169.5C 431.434,153.352 475.601,148.686 521,155.5C 536.849,147.942 553.016,141.276 569.5,135.5 Z"/></g>
<g><path style="opacity:1" fill="#e1e1e4" d="M 605.5,175.5 C 606.5,175.5 607.5,175.5 608.5,175.5C 608.5,176.833 608.5,178.167 608.5,179.5C 605.046,179.733 604.046,178.4 605.5,175.5 Z"/></g>
<g><path style="opacity:0.408" fill="#272440" d="M 382.5,172.5 C 383.552,172.771 384.885,172.938 386.5,173C 335.573,193.928 294.073,226.762 262,271.5C 261.722,270.584 261.222,269.918 260.5,269.5C 291.72,225.28 332.386,192.946 382.5,172.5 Z"/></g>
<g><path style="opacity:1" fill="#e1e0e3" d="M 444.5,195.5 C 445.5,195.5 446.5,195.5 447.5,195.5C 447.5,196.833 447.5,198.167 447.5,199.5C 444.046,199.733 443.046,198.4 444.5,195.5 Z"/></g>
<g><path style="opacity:0.867" fill="#d6d6da" d="M 690.5,197.5 C 691.5,197.5 692.5,197.5 693.5,197.5C 693.5,198.833 693.5,200.167 693.5,201.5C 690.046,201.733 689.046,200.4 690.5,197.5 Z"/></g>
<g><path style="opacity:1" fill="#f26280" d="M 542.5,225.5 C 546.976,225.822 548.476,228.156 547,232.5C 543.187,235.589 540.687,234.755 539.5,230C 539.557,227.791 540.557,226.291 542.5,225.5 Z"/></g>
<g><path style="opacity:0.155" fill="#1e1b39" d="M 429.5,300.5 C 426.523,292.399 422.689,284.732 418,277.5C 407.66,266.162 395.827,256.662 382.5,249C 332.751,232.742 294.751,246.909 268.5,291.5C 267.624,291.369 266.957,291.702 266.5,292.5C 264.902,296.126 263.402,299.793 262,303.5C 261.726,300.351 262.392,297.351 264,294.5C 284.08,255.204 316.246,237.37 360.5,241C 394.862,247.335 418.528,266.668 431.5,299C 431.164,300.03 430.497,300.53 429.5,300.5 Z"/></g>
<g><path style="opacity:0.976" fill="#28263e" d="M 649.5,132.5 C 660.049,133.592 670.382,135.759 680.5,139C 718.588,151.696 752.254,171.53 781.5,198.5C 819.156,179.333 856.156,180.5 892.5,202C 918.131,220.316 932.964,245.149 937,276.5C 939.012,294.586 936.512,311.919 929.5,328.5C 928.504,328.414 927.671,328.748 927,329.5C 922.27,340.227 915.937,349.894 908,358.5C 900.847,365.835 893.013,372.168 884.5,377.5C 868.666,385.61 851.832,389.943 834,390.5C 786.172,387.774 753.839,364.107 737,319.5C 724.393,270.405 738.559,231.072 779.5,201.5C 741.653,164.411 696.32,141.911 643.5,134C 645.708,133.809 647.708,133.309 649.5,132.5 Z M 929.5,306.5 C 922.728,337.244 905.728,360.244 878.5,375.5C 854.893,386.159 830.56,388.159 805.5,381.5C 767.122,367.934 744.289,340.934 737,300.5C 734.361,265.75 745.861,236.583 771.5,213C 810.623,184.656 850.623,183.323 891.5,209C 922.863,234.509 935.529,267.009 929.5,306.5 Z M 850.5,254.5 C 829.66,250.247 810.66,254.247 793.5,266.5C 792.542,266.953 791.708,267.619 791,268.5C 791.63,252.514 799.797,242.347 815.5,238C 830.825,235.998 842.492,241.498 850.5,254.5 Z"/></g>
<g><path style="opacity:1" fill="#6b62fe" d="M 850.5,254.5 C 850.833,255.833 851.167,255.833 851.5,254.5C 852.167,254.5 852.833,254.5 853.5,254.5C 887.23,267.921 902.064,292.921 898,329.5C 891.824,358.342 874.324,375.842 845.5,382C 837.833,382.667 830.167,382.667 822.5,382C 817.38,381.57 812.713,380.07 808.5,377.5C 808.918,376.778 809.584,376.278 810.5,376C 780.455,361.081 767.955,336.914 773,303.5C 774.167,299.833 775.333,296.167 776.5,292.5C 776.03,291.537 775.363,291.537 774.5,292.5C 776.389,285.044 780.056,278.711 785.5,273.5C 788.345,274.922 790.678,277.089 792.5,280C 795.205,281.872 798.205,282.705 801.5,282.5C 807.828,281.78 813.828,279.947 819.5,277C 823.167,276.333 826.833,276.333 830.5,277C 835.31,279.117 836.977,282.617 835.5,287.5C 838.308,288.529 839.642,287.362 839.5,284C 836.098,274.62 829.431,271.287 819.5,274C 812.23,277.82 804.563,279.487 796.5,279C 790.173,275.887 789.173,271.721 793.5,266.5C 810.66,254.247 829.66,250.247 850.5,254.5 Z"/></g>
<g><path style="opacity:0.977" fill="#2b2947" d="M 853.5,254.5 C 852.833,254.5 852.167,254.5 851.5,254.5C 851.167,254.5 850.833,254.5 850.5,254.5C 842.492,241.498 830.825,235.998 815.5,238C 799.797,242.347 791.63,252.514 791,268.5C 791.708,267.619 792.542,266.953 793.5,266.5C 789.173,271.721 790.173,275.887 796.5,279C 804.563,279.487 812.23,277.82 819.5,274C 829.431,271.287 836.098,274.62 839.5,284C 839.642,287.362 838.308,288.529 835.5,287.5C 836.977,282.617 835.31,279.117 830.5,277C 826.833,276.333 823.167,276.333 819.5,277C 813.828,279.947 807.828,281.78 801.5,282.5C 798.205,282.705 795.205,281.872 792.5,280C 790.678,277.089 788.345,274.922 785.5,273.5C 783.245,253.566 791.578,240.066 810.5,233C 827.796,228.654 842.129,233.321 853.5,247C 876.994,241.667 894.494,249.501 906,270.5C 908.432,276.573 908.932,282.74 907.5,289C 906.056,289.781 904.723,289.614 903.5,288.5C 901.617,267.116 890.117,254.45 869,250.5C 863.858,251.911 858.691,253.244 853.5,254.5 Z M 850.5,254.5 C 829.66,250.247 810.66,254.247 793.5,266.5C 792.542,266.953 791.708,267.619 791,268.5C 791.63,252.514 799.797,242.347 815.5,238C 830.825,235.998 842.492,241.498 850.5,254.5 Z"/></g>
<g><path style="opacity:1" fill="#29283e" d="M 766.5,225.5 C 769.233,225.196 770.899,226.363 771.5,229C 751.612,253.377 743.946,281.21 748.5,312.5C 744.643,314.082 742.477,312.749 742,308.5C 738.048,279.913 744.381,253.913 761,230.5C 762.73,228.598 764.563,226.931 766.5,225.5 Z"/></g>
<g><path style="opacity:1" fill="#685ff0" d="M 723.5,284.5 C 729.158,283.679 730.825,285.846 728.5,291C 722.741,292.139 721.074,289.972 723.5,284.5 Z"/></g>
<g><path style="opacity:1" fill="#363456" d="M 804.5,299.5 C 805.931,299.881 806.764,300.881 807,302.5C 807.917,310.832 808.75,319.166 809.5,327.5C 806.531,326.671 803.531,326.505 800.5,327C 798.567,331.467 799.567,335.133 803.5,338C 807.037,338.145 810.371,338.978 813.5,340.5C 802.289,343.164 796.789,338.831 797,327.5C 799.408,324.38 802.574,323.047 806.5,323.5C 805.701,315.512 805.035,307.512 804.5,299.5 Z"/></g>
<g><path style="opacity:1" fill="#e0e0e3" d="M 500.5,300.5 C 501.5,300.5 502.5,300.5 503.5,300.5C 503.5,301.833 503.5,303.167 503.5,304.5C 500.046,304.733 499.046,303.4 500.5,300.5 Z"/></g>
<g><path style="opacity:1" fill="#d6d5da" d="M 612.5,300.5 C 613.833,300.5 615.167,300.5 616.5,300.5C 616.833,303.5 615.5,304.833 612.5,304.5C 612.5,303.167 612.5,301.833 612.5,300.5 Z"/></g>
<g><path style="opacity:1" fill="#3d3a6b" d="M 777.5,301.5 C 782.167,301.5 786.833,301.5 791.5,301.5C 791.5,302.5 791.5,303.5 791.5,304.5C 786.833,304.5 782.167,304.5 777.5,304.5C 777.5,303.5 777.5,302.5 777.5,301.5 Z"/></g>
<g><path style="opacity:1" fill="#3d396a" d="M 820.5,301.5 C 825.167,301.5 829.833,301.5 834.5,301.5C 834.5,302.5 834.5,303.5 834.5,304.5C 829.833,304.5 825.167,304.5 820.5,304.5C 820.5,303.5 820.5,302.5 820.5,301.5 Z"/></g>
<g><path style="opacity:0.275" fill="#464379" d="M 929.5,306.5 C 930.586,306.62 931.253,307.287 931.5,308.5C 924.614,338.697 907.614,361.03 880.5,375.5C 879.833,375.5 879.167,375.5 878.5,375.5C 905.728,360.244 922.728,337.244 929.5,306.5 Z"/></g>
<g><path style="opacity:0.11" fill="#38366b" d="M 929.5,328.5 C 920.086,350.245 905.086,366.912 884.5,378.5C 884.5,378.167 884.5,377.833 884.5,377.5C 893.013,372.168 900.847,365.835 908,358.5C 915.937,349.894 922.27,340.227 927,329.5C 927.671,328.748 928.504,328.414 929.5,328.5 Z"/></g>
<g><path style="opacity:0.027" fill="#2d2d31" d="M 379.5,347.5 C 378.005,347.585 377.005,346.919 376.5,345.5C 378.396,344.361 379.396,345.027 379.5,347.5 Z"/></g>
<g><path style="opacity:0.031" fill="#34304b" d="M 379.5,347.5 C 380.776,348.386 380.776,349.386 379.5,350.5C 378.438,349.575 378.438,348.575 379.5,347.5 Z"/></g>
<g><path style="opacity:0.11" fill="#5c52fc" d="M 808.5,377.5 C 779.009,363.204 766.176,339.537 770,306.5C 770.836,301.497 772.336,296.83 774.5,292.5C 775.363,291.537 776.03,291.537 776.5,292.5C 775.333,296.167 774.167,299.833 773,303.5C 767.955,336.914 780.455,361.081 810.5,376C 809.584,376.278 808.918,376.778 808.5,377.5 Z"/></g>
<g><path style="opacity:0.107" fill="#393750" d="M 367.5,342.5 C 368.586,342.62 369.253,343.287 369.5,344.5C 368.957,345.864 368.79,347.197 369,348.5C 370.164,348.165 371.497,348.165 373,348.5C 373.494,350.134 373.66,351.801 373.5,353.5C 376.044,353.896 378.211,353.229 380,351.5C 377.192,362.562 371.859,363.896 364,355.5C 361.635,350.11 362.801,345.776 367.5,342.5 Z"/></g>
<g><path style="opacity:0.678" fill="#9897a2" d="M 268.5,350.5 C 269.404,351.209 269.737,352.209 269.5,353.5C 268.85,353.196 268.183,352.863 267.5,352.5C 266.513,355.768 266.18,359.102 266.5,362.5C 267.5,362.5 268.5,362.5 269.5,362.5C 269.785,364.288 269.452,365.955 268.5,367.5C 267.571,366.45 266.905,366.45 266.5,367.5C 263.366,361.928 261.532,355.928 261,349.5C 263.333,350.167 265.667,350.833 268,351.5C 268.399,351.272 268.565,350.938 268.5,350.5 Z"/></g>
<g><path style="opacity:0.522" fill="#c2c2c7" d="M 269.5,353.5 C 272.703,359.721 276.37,365.721 280.5,371.5C 279.504,371.414 278.671,371.748 278,372.5C 276.838,370.162 275.004,368.828 272.5,368.5C 272.5,370.5 272.5,372.5 272.5,374.5C 273.5,374.5 274.5,374.5 275.5,374.5C 276.103,378.099 278.103,380.432 281.5,381.5C 281.5,382.833 281.5,384.167 281.5,385.5C 282.5,385.5 283.5,385.5 284.5,385.5C 284.5,386.833 284.5,388.167 284.5,389.5C 285.5,389.5 286.5,389.5 287.5,389.5C 287.5,390.5 287.5,391.5 287.5,392.5C 289.5,393.167 291.5,393.833 293.5,394.5C 293.5,395.5 293.5,396.5 293.5,397.5C 296.067,397.855 298.567,398.521 301,399.5C 301.5,399.167 302,398.833 302.5,398.5C 300.318,396.289 299.318,393.622 299.5,390.5C 303.472,392.822 307.472,395.155 311.5,397.5C 311.5,399.5 311.5,401.5 311.5,403.5C 307.513,403.01 303.846,403.676 300.5,405.5C 288.616,399.119 279.116,390.119 272,378.5C 269.628,375.09 267.795,371.423 266.5,367.5C 266.905,366.45 267.571,366.45 268.5,367.5C 269.452,365.955 269.785,364.288 269.5,362.5C 268.5,362.5 267.5,362.5 266.5,362.5C 266.18,359.102 266.513,355.768 267.5,352.5C 268.183,352.863 268.85,353.196 269.5,353.5 Z"/></g>
<g><path style="opacity:1" fill="#f26280" d="M 716.5,367.5 C 720.976,367.822 722.476,370.156 721,374.5C 717.187,377.589 714.687,376.755 713.5,372C 713.557,369.791 714.557,368.291 716.5,367.5 Z"/></g>
<g><path style="opacity:0.278" fill="#7771e7" d="M 163.5,362.5 C 154.497,364.504 145.497,367.004 136.5,370C 130.077,372.959 124.41,376.792 119.5,381.5C 122.338,376.496 126.338,372.663 131.5,370C 141.741,365.606 152.408,363.106 163.5,362.5 Z"/></g>
<g><path style="opacity:0.704" fill="#dbdbdd" d="M 280.5,371.5 C 285.833,378.833 292.167,385.167 299.5,390.5C 299.318,393.622 300.318,396.289 302.5,398.5C 302,398.833 301.5,399.167 301,399.5C 298.567,398.521 296.067,397.855 293.5,397.5C 293.5,396.5 293.5,395.5 293.5,394.5C 291.5,393.833 289.5,393.167 287.5,392.5C 287.5,391.5 287.5,390.5 287.5,389.5C 286.5,389.5 285.5,389.5 284.5,389.5C 284.5,388.167 284.5,386.833 284.5,385.5C 283.5,385.5 282.5,385.5 281.5,385.5C 281.5,384.167 281.5,382.833 281.5,381.5C 278.103,380.432 276.103,378.099 275.5,374.5C 274.5,374.5 273.5,374.5 272.5,374.5C 272.5,372.5 272.5,370.5 272.5,368.5C 275.004,368.828 276.838,370.162 278,372.5C 278.671,371.748 279.504,371.414 280.5,371.5 Z"/></g>
<g><path style="opacity:0.47" fill="#44425f" d="M 878.5,375.5 C 879.167,375.5 879.833,375.5 880.5,375.5C 857.748,387.819 833.748,390.652 808.5,384C 806.881,383.764 805.881,382.931 805.5,381.5C 830.56,388.159 854.893,386.159 878.5,375.5 Z"/></g>
<g><path style="opacity:1" fill="#2e2d41" d="M 884.5,414.5 C 883.908,423.567 882.742,432.567 881,441.5C 876.73,454.81 872.563,468.143 868.5,481.5C 866.769,485.295 864.769,488.962 862.5,492.5C 862.657,491.127 862.49,489.793 862,488.5C 846.212,521.211 824.712,549.711 797.5,574C 798.094,574.464 798.761,574.631 799.5,574.5C 789.017,584.994 777.684,594.327 765.5,602.5C 764.448,602.649 763.448,602.483 762.5,602C 773.92,594.08 784.587,585.247 794.5,575.5C 789.22,571.722 784.386,567.389 780,562.5C 771.274,548.038 768.107,532.371 770.5,515.5C 793.097,492.007 815.931,468.674 839,445.5C 846.387,435.183 844.554,427.016 833.5,421C 829.833,420.333 826.167,420.333 822.5,421C 805.055,438.06 787.722,455.227 770.5,472.5C 770.333,449.498 770.5,426.498 771,403.5C 771.273,401.671 772.107,400.171 773.5,399C 785.408,397.853 797.408,397.353 809.5,397.5C 823.531,397.412 837.531,397.912 851.5,399C 862.762,402.045 872.596,407.545 881,415.5C 882.273,407.269 882.94,398.936 883,390.5C 883.171,398.677 883.671,406.677 884.5,414.5 Z"/></g>
<g><path style="opacity:1" fill="#706f81" d="M 563.5,380.5 C 563.897,379.475 564.563,379.308 565.5,380C 606.667,414.5 647.833,449 689,483.5C 690.167,487.667 688.667,489.167 684.5,488C 643.998,452.33 603.665,416.497 563.5,380.5 Z"/></g>
<g><path style="opacity:0.576" fill="#a09fa9" d="M 311.5,397.5 C 313.167,398.167 314.833,398.833 316.5,399.5C 317.341,401.379 317.675,403.379 317.5,405.5C 314.5,405.5 311.5,405.5 308.5,405.5C 308.238,406.978 308.571,408.311 309.5,409.5C 313.279,410.712 316.945,412.212 320.5,414C 327.222,414.898 333.889,416.065 340.5,417.5C 344.135,416.909 347.802,416.576 351.5,416.5C 354.913,416.517 357.913,417.184 360.5,418.5C 343.56,421.017 327.227,418.85 311.5,412C 307.44,410.311 303.773,408.144 300.5,405.5C 303.846,403.676 307.513,403.01 311.5,403.5C 311.5,401.5 311.5,399.5 311.5,397.5 Z"/></g>
<g><path style="opacity:1" fill="#d5d4d9" d="M 702.5,409.5 C 703.833,409.5 705.167,409.5 706.5,409.5C 706.833,412.5 705.5,413.833 702.5,413.5C 702.5,412.167 702.5,410.833 702.5,409.5 Z"/></g>
<g><path style="opacity:1" fill="#fc5f80" d="M 921.5,407.5 C 935.013,405.512 940.513,411.179 938,424.5C 931.254,431.78 924.254,432.114 917,425.5C 913.88,418.148 915.38,412.148 921.5,407.5 Z"/></g>
<g><path style="opacity:0.96" fill="#5e55ee" d="M 138.5,373.5 C 138.44,372.957 138.107,372.624 137.5,372.5C 129.238,375.421 124.238,381.088 122.5,389.5C 122.594,391.923 123.094,394.256 124,396.5C 133.824,411.492 146.658,423.158 162.5,431.5C 164.308,431.491 165.975,431.991 167.5,433C 176.269,438.713 185.269,443.88 194.5,448.5C 194.414,449.496 194.748,450.329 195.5,451C 197.86,452.18 200.193,453.347 202.5,454.5C 203.328,456.075 203.662,457.408 203.5,458.5C 203.5,459.167 203.167,459.5 202.5,459.5C 174.362,446.355 148.862,429.355 126,408.5C 119.405,400.552 117.238,391.552 119.5,381.5C 124.41,376.792 130.077,372.959 136.5,370C 145.497,367.004 154.497,364.504 163.5,362.5C 168.62,361.203 173.954,360.369 179.5,360C 189.494,359.5 199.494,359.334 209.5,359.5C 209.5,361.167 209.5,362.833 209.5,364.5C 185.351,364.014 161.684,367.014 138.5,373.5 Z"/></g>
<g><path style="opacity:0.102" fill="#6a697a" d="M 341.5,405.5 C 340.048,406.302 338.382,406.802 336.5,407C 338.359,407.684 340.026,408.684 341.5,410C 339.604,411.065 339.437,411.898 341,412.5C 343.165,410.036 345.165,410.036 347,412.5C 350.66,412.13 354.66,411.797 359,411.5C 364.672,414.031 370.506,414.864 376.5,414C 371.337,416.124 366.004,417.624 360.5,418.5C 357.913,417.184 354.913,416.517 351.5,416.5C 347.802,416.576 344.135,416.909 340.5,417.5C 333.889,416.065 327.222,414.898 320.5,414C 316.945,412.212 313.279,410.712 309.5,409.5C 308.571,408.311 308.238,406.978 308.5,405.5C 311.5,405.5 314.5,405.5 317.5,405.5C 317.675,403.379 317.341,401.379 316.5,399.5C 317.117,397.771 318.117,396.271 319.5,395C 329.5,390.836 335.167,394.169 336.5,405C 338.134,405.494 339.801,405.66 341.5,405.5 Z"/></g>
<g><path style="opacity:1" fill="#6b62fc" d="M 770.5,515.5 C 765.67,519.497 761.336,523.997 757.5,529C 754.634,530.457 751.634,530.79 748.5,530C 744.966,526.131 741.133,522.631 737,519.5C 734.67,516.541 734.004,513.207 735,509.5C 747.401,497.601 759.235,485.268 770.5,472.5C 787.722,455.227 805.055,438.06 822.5,421C 826.167,420.333 829.833,420.333 833.5,421C 844.554,427.016 846.387,435.183 839,445.5C 815.931,468.674 793.097,492.007 770.5,515.5 Z"/></g>
<g><path style="opacity:0.557" fill="#6f67e5" d="M 138.5,373.5 C 122.727,380.39 120.227,390.723 131,404.5C 139.375,412.266 148.208,419.432 157.5,426C 159.686,427.412 161.352,429.245 162.5,431.5C 146.658,423.158 133.824,411.492 124,396.5C 123.094,394.256 122.594,391.923 122.5,389.5C 124.238,381.088 129.238,375.421 137.5,372.5C 138.107,372.624 138.44,372.957 138.5,373.5 Z"/></g>
<g><path style="opacity:1" fill="#685ff0" d="M 422.5,426.5 C 428.158,425.679 429.825,427.846 427.5,433C 421.741,434.139 420.074,431.972 422.5,426.5 Z"/></g>
<g><path style="opacity:0.747" fill="#22203e" d="M 204.5,454.5 C 203.833,454.5 203.167,454.5 202.5,454.5C 202.737,453.209 202.404,452.209 201.5,451.5C 201.928,435.403 203.261,419.403 205.5,403.5C 207.011,401.524 207.844,399.191 208,396.5C 208.167,397.667 208.333,398.833 208.5,400C 205.713,418.059 204.38,436.225 204.5,454.5 Z"/></g>
<g><path style="opacity:1" fill="#d5d5d9" d="M 555.5,446.5 C 556.833,446.5 558.167,446.5 559.5,446.5C 559.833,449.5 558.5,450.833 555.5,450.5C 555.5,449.167 555.5,447.833 555.5,446.5 Z"/></g>
<g><path style="opacity:0.261" fill="#4e48b1" d="M 194.5,448.5 C 196.954,449.227 199.287,450.227 201.5,451.5C 202.404,452.209 202.737,453.209 202.5,454.5C 200.193,453.347 197.86,452.18 195.5,451C 194.748,450.329 194.414,449.496 194.5,448.5 Z"/></g>
<g><path style="opacity:1" fill="#6960f3" d="M 202.5,454.5 C 203.167,454.5 203.833,454.5 204.5,454.5C 227.484,466.488 251.15,477.155 275.5,486.5C 278.409,483.423 281.742,480.923 285.5,479C 289.926,478.209 294.259,478.543 298.5,480C 306.208,484.25 309.542,490.75 308.5,499.5C 451.676,549.927 598.676,584.76 749.5,604C 755.016,604.817 760.35,604.651 765.5,603.5C 767.95,603.702 770.283,603.369 772.5,602.5C 772.611,603.117 772.944,603.617 773.5,604C 777.169,604.498 780.502,604.998 783.5,605.5C 809.139,607.263 834.806,607.763 860.5,607C 872.022,606.554 883.355,605.054 894.5,602.5C 894.328,603.492 894.662,604.158 895.5,604.5C 894.913,605.767 894.913,606.767 895.5,607.5C 906.725,605.636 916.558,600.97 925,593.5C 929.548,585.931 929.382,578.431 924.5,571C 925.094,570.536 925.761,570.369 926.5,570.5C 933.266,585.372 929.266,596.206 914.5,603C 889.706,611.256 864.206,615.09 838,614.5C 812.676,614.001 787.509,612.001 762.5,608.5C 758.401,608.843 754.734,610.176 751.5,612.5C 749.683,610.49 747.683,610.157 745.5,611.5C 595.495,639.668 444.162,651.668 291.5,647.5C 290.596,648.209 290.263,649.209 290.5,650.5C 289.395,649.4 288.062,648.733 286.5,648.5C 286.804,647.85 287.137,647.183 287.5,646.5C 286.398,645.824 285.398,645.158 284.5,644.5C 440.925,649.324 595.925,636.824 749.5,607C 633.357,592.706 519.357,568.706 407.5,535C 373.968,524.823 340.802,513.656 308,501.5C 303.591,510.455 296.424,514.288 286.5,513C 280.359,510.859 276.193,506.693 274,500.5C 273.65,496.467 273.483,492.633 273.5,489C 249.795,479.646 226.461,469.48 203.5,458.5C 203.662,457.408 203.328,456.075 202.5,454.5 Z"/></g>
<g><path style="opacity:1" fill="#3e3c56" d="M 203.5,458.5 C 226.461,469.48 249.795,479.646 273.5,489C 273.483,492.633 273.65,496.467 274,500.5C 276.193,506.693 280.359,510.859 286.5,513C 296.424,514.288 303.591,510.455 308,501.5C 340.802,513.656 373.968,524.823 407.5,535C 519.357,568.706 633.357,592.706 749.5,607C 595.925,636.824 440.925,649.324 284.5,644.5C 282.739,643.687 281.072,642.687 279.5,641.5C 279.833,641.5 280.167,641.5 280.5,641.5C 281.552,641.649 282.552,641.483 283.5,641C 266.008,624.521 251.175,606.021 239,585.5C 238.383,586.449 238.549,587.282 239.5,588C 238.906,588.464 238.239,588.631 237.5,588.5C 215.082,548.502 203.416,505.502 202.5,459.5C 203.167,459.5 203.5,459.167 203.5,458.5 Z"/></g>
<g><path style="opacity:0.153" fill="#736ce3" d="M 934.5,494.5 C 934.265,495.097 933.765,495.43 933,495.5C 914.287,489.197 895.12,484.863 875.5,482.5C 873.611,482.436 871.944,482.936 870.5,484C 879.829,485.666 889.163,487.333 898.5,489C 899.056,489.383 899.389,489.883 899.5,490.5C 889.844,489.002 880.177,487.502 870.5,486C 868.963,484.89 868.297,483.39 868.5,481.5C 876.476,480.824 884.476,481.324 892.5,483C 907.09,485.148 921.09,488.981 934.5,494.5 Z"/></g>
<g><path style="opacity:1" fill="#e0e0e3" d="M 385.5,513.5 C 386.5,513.5 387.5,513.5 388.5,513.5C 388.5,514.833 388.5,516.167 388.5,517.5C 385.046,517.733 384.046,516.4 385.5,513.5 Z"/></g>
<g><path style="opacity:1" fill="#f26281" d="M 542.5,520.5 C 546.976,520.822 548.476,523.156 547,527.5C 543.187,530.589 540.687,529.755 539.5,525C 539.557,522.791 540.557,521.291 542.5,520.5 Z"/></g>
<g><path style="opacity:0.263" fill="#6e68df" d="M 883.5,533.5 C 883.631,534.239 883.464,534.906 883,535.5C 874.744,530.287 866.244,525.454 857.5,521C 855.648,520.227 854.314,520.727 853.5,522.5C 852.347,521.687 852.347,520.687 853.5,519.5C 855.074,518.369 856.741,518.202 858.5,519C 867.224,523.355 875.557,528.188 883.5,533.5 Z"/></g>
<g><path style="opacity:0.459" fill="#1a192e" d="M 862.5,492.5 C 846.855,523.828 825.855,551.162 799.5,574.5C 798.761,574.631 798.094,574.464 797.5,574C 824.712,549.711 846.212,521.211 862,488.5C 862.49,489.793 862.657,491.127 862.5,492.5 Z"/></g>
<g><path style="opacity:1" fill="#695ffa" d="M 934.5,494.5 C 938.134,495.397 941.634,496.73 945,498.5C 952.304,495.195 959.804,494.695 967.5,497C 975.626,503.381 978.126,511.548 975,521.5C 972.184,527.167 967.684,530.834 961.5,532.5C 957.382,538.453 952.382,543.62 946.5,548C 938.462,553.352 930.129,558.185 921.5,562.5C 923.178,565.195 924.844,567.861 926.5,570.5C 925.761,570.369 925.094,570.536 924.5,571C 929.382,578.431 929.548,585.931 925,593.5C 916.558,600.97 906.725,605.636 895.5,607.5C 894.913,606.767 894.913,605.767 895.5,604.5C 903.698,603.156 911.365,600.322 918.5,596C 925.361,590.887 927.194,584.387 924,576.5C 923.536,577.094 923.369,577.761 923.5,578.5C 921.694,573.191 918.527,568.857 914,565.5C 895.582,573.308 876.749,580.141 857.5,586C 832.708,592.583 808.041,599.083 783.5,605.5C 780.502,604.998 777.169,604.498 773.5,604C 772.944,603.617 772.611,603.117 772.5,602.5C 777.566,601.887 782.566,600.887 787.5,599.5C 788.713,599.253 789.38,598.586 789.5,597.5C 789.5,596.833 789.833,596.5 790.5,596.5C 790.47,597.497 790.97,598.164 792,598.5C 820.749,592.108 848.916,584.108 876.5,574.5C 876.47,573.503 876.97,572.836 878,572.5C 888.693,568.716 899.193,564.549 909.5,560C 907.833,558.333 906.167,556.667 904.5,555C 895.817,549.659 887.484,543.826 879.5,537.5C 870.444,532.978 861.777,527.978 853.5,522.5C 854.314,520.727 855.648,520.227 857.5,521C 866.244,525.454 874.744,530.287 883,535.5C 883.464,534.906 883.631,534.239 883.5,533.5C 884.492,533.328 885.158,533.662 885.5,534.5C 884.226,535.189 884.226,536.023 885.5,537C 896.24,543.743 906.407,551.243 916,559.5C 929.915,553.8 942.415,545.966 953.5,536C 952.906,535.536 952.239,535.369 951.5,535.5C 952.028,534.279 952.695,533.113 953.5,532C 940.321,526.99 936.321,517.824 941.5,504.5C 938.617,501.891 935.283,500.058 931.5,499C 920.786,495.823 910.119,492.99 899.5,490.5C 899.389,489.883 899.056,489.383 898.5,489C 889.163,487.333 879.829,485.666 870.5,484C 871.944,482.936 873.611,482.436 875.5,482.5C 895.12,484.863 914.287,489.197 933,495.5C 933.765,495.43 934.265,495.097 934.5,494.5 Z"/></g>
<g><path style="opacity:0.306" fill="#7e78f4" d="M 885.5,534.5 C 896.073,541.566 906.24,549.233 916,557.5C 929.053,552.061 940.887,544.727 951.5,535.5C 952.239,535.369 952.906,535.536 953.5,536C 942.415,545.966 929.915,553.8 916,559.5C 906.407,551.243 896.24,543.743 885.5,537C 884.226,536.023 884.226,535.189 885.5,534.5 Z"/></g>
<g><path style="opacity:1" fill="#d5d5d9" d="M 414.5,558.5 C 415.833,558.5 417.167,558.5 418.5,558.5C 418.833,561.5 417.5,562.833 414.5,562.5C 414.5,561.167 414.5,559.833 414.5,558.5 Z"/></g>
<g><path style="opacity:0.212" fill="#766dd4" d="M 210.5,551.5 C 209.469,550.645 208.303,549.978 207,549.5C 190.752,554.86 175.252,561.86 160.5,570.5C 159.702,570.043 159.369,569.376 159.5,568.5C 174.761,559.871 190.761,552.871 207.5,547.5C 209.288,548.283 210.288,549.616 210.5,551.5 Z"/></g>
<g><path style="opacity:1" fill="#d4d4d8" d="M 667.5,572.5 C 668.833,572.5 670.167,572.5 671.5,572.5C 671.833,575.5 670.5,576.833 667.5,576.5C 667.5,575.167 667.5,573.833 667.5,572.5 Z"/></g>
<g><path style="opacity:1" fill="#fd5d7d" d="M 192.5,582.5 C 203.772,581.273 208.939,586.273 208,597.5C 206.327,602.434 202.827,605.1 197.5,605.5C 187.209,604.259 183.375,598.592 186,588.5C 187.494,585.686 189.66,583.686 192.5,582.5 Z"/></g>
<g><path style="opacity:0.086" fill="#7f78ef" d="M 876.5,574.5 C 848.916,584.108 820.749,592.108 792,598.5C 790.97,598.164 790.47,597.497 790.5,596.5C 819.431,590.101 848.098,582.767 876.5,574.5 Z"/></g>
<g><path style="opacity:0.471" fill="#746dd9" d="M 789.5,597.5 C 789.38,598.586 788.713,599.253 787.5,599.5C 782.566,600.887 777.566,601.887 772.5,602.5C 770.283,603.369 767.95,603.702 765.5,603.5C 765.5,603.167 765.5,602.833 765.5,602.5C 773.433,600.517 781.433,598.85 789.5,597.5 Z"/></g>
<g><path style="opacity:0.318" fill="#7e78ee" d="M 895.5,604.5 C 894.662,604.158 894.328,603.492 894.5,602.5C 902.793,601.353 910.46,598.52 917.5,594C 922.424,589.983 924.424,584.816 923.5,578.5C 923.369,577.761 923.536,577.094 924,576.5C 927.194,584.387 925.361,590.887 918.5,596C 911.365,600.322 903.698,603.156 895.5,604.5 Z"/></g>
<g><path style="opacity:1" fill="#3e3c56" d="M 745.5,611.5 C 747.842,611.775 747.842,612.608 745.5,614C 692.621,648.439 635.955,674.772 575.5,693C 528.7,706.733 481.033,711.066 432.5,706C 384.941,700.486 341.607,684.152 302.5,657C 298.641,653.968 294.974,650.802 291.5,647.5C 444.162,651.668 595.495,639.668 745.5,611.5 Z"/></g>
<g><path style="opacity:0.384" fill="#252240" d="M 280.5,641.5 C 272.865,634.698 265.699,627.365 259,619.5C 252.003,609.011 244.836,598.678 237.5,588.5C 238.239,588.631 238.906,588.464 239.5,588C 238.549,587.282 238.383,586.449 239,585.5C 251.175,606.021 266.008,624.521 283.5,641C 282.552,641.483 281.552,641.649 280.5,641.5 Z"/></g>
<g><path style="opacity:1" fill="#e1e1e4" d="M 343.5,621.5 C 344.5,621.5 345.5,621.5 346.5,621.5C 346.5,622.833 346.5,624.167 346.5,625.5C 343.046,625.733 342.046,624.4 343.5,621.5 Z"/></g>
<g><path style="opacity:0.153" fill="#8578f1" d="M 139.5,597.5 C 138.12,601.884 138.953,605.884 142,609.5C 147.234,614.203 153.067,618.037 159.5,621C 181.575,628.782 204.242,633.948 227.5,636.5C 227.209,637.649 226.376,638.316 225,638.5C 201.804,635.742 179.304,630.242 157.5,622C 148.455,618.612 141.622,612.778 137,604.5C 136.503,602.19 136.337,599.857 136.5,597.5C 137.5,597.5 138.5,597.5 139.5,597.5 Z"/></g>
<g><path style="opacity:0.978" fill="#695ef8" d="M 210.5,551.5 C 209.942,552.79 208.942,553.623 207.5,554C 184.746,560.791 164.246,571.624 146,586.5C 142.802,589.563 140.636,593.229 139.5,597.5C 138.5,597.5 137.5,597.5 136.5,597.5C 136.337,599.857 136.503,602.19 137,604.5C 141.622,612.778 148.455,618.612 157.5,622C 179.304,630.242 201.804,635.742 225,638.5C 226.376,638.316 227.209,637.649 227.5,636.5C 244.72,639.152 262.053,640.819 279.5,641.5C 281.072,642.687 282.739,643.687 284.5,644.5C 285.398,645.158 286.398,645.824 287.5,646.5C 287.137,647.183 286.804,647.85 286.5,648.5C 253.366,645.984 220.366,641.817 187.5,636C 170.484,632.778 154.817,626.445 140.5,617C 132.082,609.215 130.248,600.049 135,589.5C 142.105,581.225 150.272,574.225 159.5,568.5C 159.369,569.376 159.702,570.043 160.5,570.5C 175.252,561.86 190.752,554.86 207,549.5C 208.303,549.978 209.469,550.645 210.5,551.5 Z"/></g>
<g><path style="opacity:1" fill="#e2e2e4" d="M 476.5,636.5 C 477.5,636.5 478.5,636.5 479.5,636.5C 479.5,637.833 479.5,639.167 479.5,640.5C 476.046,640.733 475.046,639.4 476.5,636.5 Z"/></g>
<g><path style="opacity:0.243" fill="#14142f" d="M 745.5,611.5 C 747.683,610.157 749.683,610.49 751.5,612.5C 701.032,646.398 646.699,672.898 588.5,692C 537.859,707.516 486.193,712.849 433.5,708C 380.01,702.564 332.343,683.397 290.5,650.5C 290.263,649.209 290.596,648.209 291.5,647.5C 294.974,650.802 298.641,653.968 302.5,657C 341.607,684.152 384.941,700.486 432.5,706C 481.033,711.066 528.7,706.733 575.5,693C 635.955,674.772 692.621,648.439 745.5,614C 747.842,612.608 747.842,611.775 745.5,611.5 Z"/></g>
</svg>
